<svg width="215" height="42" viewBox="0 0 215 42" fill="none" xmlns="http://www.w3.org/2000/svg">
<g filter="url(#filter0_d_0_1597)">
<g filter="url(#filter1_dd_0_1597)">
<rect x="4.1" y="2.1" width="31.8" height="31.8" rx="7.9" fill="white"/>
<rect x="4.1" y="2.1" width="31.8" height="31.8" rx="7.9" fill="url(#paint0_linear_0_1597)"/>
<rect x="4.1" y="2.1" width="31.8" height="31.8" rx="7.9" stroke="#D0D5DD" stroke-width="0.2"/>
<path d="M19.3546 13.1828C23.7105 11.4504 28.4742 12.8185 30.6373 14.9133C31.106 15.3671 31.5041 15.8275 31.845 16.2852C32.0394 15.2107 32.0552 14.1405 31.8681 13.1055C31.1847 9.32649 27.6195 7.18561 24.4233 8.29149C21.2415 9.3924 20.0005 11.5321 20.0005 11.5321C20.0005 11.5321 18.7595 9.3924 15.5777 8.29149C12.3812 7.18561 8.81603 9.32672 8.1328 13.1055C7.62842 15.8944 8.58356 18.9392 10.6103 21.6298C11.0372 21.7732 11.4847 21.8809 11.9586 21.9431C14.7978 22.3163 15.8184 21.557 17.0178 21.0486C17.8142 20.7113 18.4134 21.0942 18.3843 21.3626C18.3392 21.7786 16.7693 22.4895 17.106 22.6388C18.4351 23.2285 20.0718 23.2334 21.3053 22.18C22.838 20.8712 23.4114 21.7659 23.4114 21.7659C23.4114 21.7659 22.6502 23.7076 20.3581 24.6717C18.4457 25.4761 16.4419 25.6743 14.6107 25.4683C16.19 26.5846 18.0035 27.5204 20.0005 28.1883C25.7099 26.2784 29.9276 22.1871 31.4145 17.9096C30.4072 16.9157 29.1716 16.2996 27.6988 16.0763C24.8674 15.6471 23.8322 16.3863 22.6228 16.8708C21.8198 17.1926 21.2285 16.7978 21.263 16.5299C21.3161 16.1148 22.8999 15.4351 22.5661 15.279C21.249 14.6633 19.6125 14.626 18.3585 15.6549C16.8003 16.9332 16.2446 16.0274 16.2446 16.0274C16.2446 16.0274 17.0438 14.1015 19.3546 13.1828ZM18.2709 18.5052H19.3709V17.4052H20.6296V18.5052H21.7296V19.7639H20.6296V20.8639H19.3709V19.7639H18.2709V18.5052Z" fill="url(#paint1_linear_0_1597)"/>
<path d="M18.2709 18.5052H19.3709V17.4052H20.6296V18.5052H21.7295V19.7639H20.6378C22.2597 20.5834 25.2383 21.8027 28.8177 22.3451C29.9956 20.9517 30.8813 19.4428 31.4143 17.9096C30.4069 16.9157 29.1713 16.2996 27.6986 16.0763C24.8672 15.647 23.8319 16.3863 22.6226 16.8708C21.8196 17.1926 21.2282 16.7978 21.2627 16.5299C21.3159 16.1148 22.8997 15.4351 22.5659 15.279C21.2488 14.6633 19.6123 14.626 18.3583 15.6548C16.8 16.9332 16.2443 16.0274 16.2443 16.0274C16.2443 16.0274 17.0438 14.1013 19.3543 13.1823C23.7102 11.4499 28.4739 12.818 30.637 14.9128C31.1057 15.3666 31.5038 15.8271 31.8447 16.2847C32.0392 15.2102 32.055 14.14 31.8679 13.105C31.1844 9.326 27.6192 7.18512 24.423 8.291C21.2412 9.39191 20.0002 11.5316 20.0002 11.5316C20.0002 11.5316 18.7592 9.39191 15.5774 8.291C13.7519 7.65927 11.8067 8.0883 10.3462 9.27521C11.0323 10.7442 11.836 12.1168 14.1254 14.8773C15.9868 17.1222 18.2709 18.5052 18.2709 18.5052Z" fill="url(#paint2_linear_0_1597)"/>
<path opacity="0.31" d="M28.277 9.64942C25.2712 8.13932 22.169 10.489 21.1851 11.7298C22.882 11.3724 24.3668 11.189 26.2457 11.5838C29.0252 12.1678 30.0654 13.1714 31.3064 14.6541C31.0871 11.9068 29.3519 10.1895 28.277 9.64942Z" fill="url(#paint3_linear_0_1597)"/>
</g>
<path d="M47.728 28V10.12H50.848L57.544 19.216H56.056L62.608 10.12H65.728V28H62.44V13.84L63.712 14.152L56.92 23.2H56.536L49.912 14.152L50.992 13.84V28H47.728ZM75.0779 28.288C73.7339 28.288 72.5579 27.984 71.5499 27.376C70.5419 26.768 69.7579 25.944 69.1979 24.904C68.6379 23.864 68.3579 22.712 68.3579 21.448C68.3579 20.136 68.6379 18.976 69.1979 17.968C69.7739 16.944 70.5499 16.136 71.5259 15.544C72.5179 14.952 73.6219 14.656 74.8379 14.656C75.8619 14.656 76.7579 14.824 77.5259 15.16C78.3099 15.496 78.9739 15.96 79.5179 16.552C80.0619 17.144 80.4779 17.824 80.7659 18.592C81.0539 19.344 81.1979 20.16 81.1979 21.04C81.1979 21.264 81.1819 21.496 81.1499 21.736C81.1339 21.976 81.0939 22.184 81.0299 22.36H70.9499V19.96H79.2539L77.7659 21.088C77.9099 20.352 77.8699 19.696 77.6459 19.12C77.4379 18.544 77.0859 18.088 76.5899 17.752C76.1099 17.416 75.5259 17.248 74.8379 17.248C74.1819 17.248 73.5979 17.416 73.0859 17.752C72.5739 18.072 72.1819 18.552 71.9099 19.192C71.6539 19.816 71.5579 20.576 71.6219 21.472C71.5579 22.272 71.6619 22.984 71.9339 23.608C72.2219 24.216 72.6379 24.688 73.1819 25.024C73.7419 25.36 74.3819 25.528 75.1019 25.528C75.8219 25.528 76.4299 25.376 76.9259 25.072C77.4379 24.768 77.8379 24.36 78.1259 23.848L80.6699 25.096C80.4139 25.72 80.0139 26.272 79.4699 26.752C78.9259 27.232 78.2779 27.608 77.5259 27.88C76.7899 28.152 75.9739 28.288 75.0779 28.288ZM89.6532 28.288C88.3892 28.288 87.2612 27.992 86.2692 27.4C85.2772 26.792 84.4932 25.968 83.9172 24.928C83.3412 23.888 83.0532 22.736 83.0532 21.472C83.0532 20.192 83.3412 19.04 83.9172 18.016C84.4932 16.992 85.2772 16.176 86.2692 15.568C87.2772 14.96 88.3972 14.656 89.6292 14.656C90.6212 14.656 91.5012 14.856 92.2692 15.256C93.0532 15.64 93.6692 16.184 94.1172 16.888L93.6372 17.536V9.832H96.7812V28H93.8052V25.48L94.1412 26.104C93.6932 26.808 93.0692 27.352 92.2692 27.736C91.4692 28.104 90.5972 28.288 89.6532 28.288ZM89.9892 25.408C90.7092 25.408 91.3412 25.24 91.8852 24.904C92.4292 24.568 92.8532 24.104 93.1572 23.512C93.4772 22.92 93.6372 22.24 93.6372 21.472C93.6372 20.72 93.4772 20.048 93.1572 19.456C92.8532 18.848 92.4292 18.376 91.8852 18.04C91.3412 17.704 90.7092 17.536 89.9892 17.536C89.2852 17.536 88.6532 17.712 88.0932 18.064C87.5332 18.4 87.0932 18.864 86.7732 19.456C86.4692 20.032 86.3172 20.704 86.3172 21.472C86.3172 22.24 86.4692 22.92 86.7732 23.512C87.0932 24.104 87.5332 24.568 88.0932 24.904C88.6532 25.24 89.2852 25.408 89.9892 25.408ZM99.7062 28V14.944H102.85V28H99.7062ZM99.7062 13.48V10.12H102.85V13.48H99.7062ZM114.417 28.288C113.137 28.288 111.953 28.056 110.865 27.592C109.793 27.128 108.849 26.48 108.033 25.648C107.233 24.816 106.609 23.84 106.161 22.72C105.713 21.6 105.489 20.376 105.489 19.048C105.489 17.72 105.705 16.496 106.137 15.376C106.585 14.24 107.209 13.264 108.009 12.448C108.825 11.616 109.777 10.976 110.865 10.528C111.953 10.064 113.137 9.832 114.417 9.832C115.697 9.832 116.841 10.048 117.849 10.48C118.873 10.912 119.737 11.488 120.441 12.208C121.145 12.912 121.649 13.688 121.953 14.536L119.025 15.904C118.689 15.008 118.121 14.272 117.321 13.696C116.521 13.104 115.553 12.808 114.417 12.808C113.297 12.808 112.305 13.072 111.441 13.6C110.593 14.128 109.929 14.856 109.449 15.784C108.985 16.712 108.753 17.8 108.753 19.048C108.753 20.296 108.985 21.392 109.449 22.336C109.929 23.264 110.593 23.992 111.441 24.52C112.305 25.048 113.297 25.312 114.417 25.312C115.553 25.312 116.521 25.024 117.321 24.448C118.121 23.856 118.689 23.112 119.025 22.216L121.953 23.584C121.649 24.432 121.145 25.216 120.441 25.936C119.737 26.64 118.873 27.208 117.849 27.64C116.841 28.072 115.697 28.288 114.417 28.288ZM130.489 28.288C129.209 28.288 128.041 27.992 126.985 27.4C125.945 26.808 125.113 26 124.489 24.976C123.881 23.952 123.577 22.784 123.577 21.472C123.577 20.16 123.881 18.992 124.489 17.968C125.113 16.944 125.945 16.136 126.985 15.544C128.025 14.952 129.193 14.656 130.489 14.656C131.769 14.656 132.929 14.952 133.969 15.544C135.009 16.136 135.833 16.944 136.441 17.968C137.065 18.976 137.377 20.144 137.377 21.472C137.377 22.784 137.065 23.952 136.441 24.976C135.817 26 134.985 26.808 133.945 27.4C132.905 27.992 131.753 28.288 130.489 28.288ZM130.489 25.408C131.193 25.408 131.809 25.24 132.337 24.904C132.881 24.568 133.305 24.104 133.609 23.512C133.929 22.904 134.089 22.224 134.089 21.472C134.089 20.704 133.929 20.032 133.609 19.456C133.305 18.864 132.881 18.4 132.337 18.064C131.809 17.712 131.193 17.536 130.489 17.536C129.769 17.536 129.137 17.712 128.593 18.064C128.049 18.4 127.617 18.864 127.297 19.456C126.993 20.032 126.841 20.704 126.841 21.472C126.841 22.224 126.993 22.904 127.297 23.512C127.617 24.104 128.049 24.568 128.593 24.904C129.137 25.24 129.769 25.408 130.489 25.408ZM139.761 28V14.944H142.713V17.512L142.473 17.056C142.777 16.272 143.273 15.68 143.961 15.28C144.665 14.864 145.481 14.656 146.409 14.656C147.369 14.656 148.217 14.864 148.953 15.28C149.705 15.696 150.289 16.28 150.705 17.032C151.121 17.768 151.329 18.624 151.329 19.6V28H148.185V20.344C148.185 19.768 148.073 19.272 147.849 18.856C147.625 18.44 147.313 18.12 146.913 17.896C146.529 17.656 146.073 17.536 145.545 17.536C145.033 17.536 144.577 17.656 144.177 17.896C143.777 18.12 143.465 18.44 143.241 18.856C143.017 19.272 142.905 19.768 142.905 20.344V28H139.761ZM153.987 28V14.944H156.939V17.512L156.699 17.056C157.003 16.272 157.499 15.68 158.187 15.28C158.891 14.864 159.707 14.656 160.635 14.656C161.595 14.656 162.443 14.864 163.179 15.28C163.931 15.696 164.515 16.28 164.931 17.032C165.347 17.768 165.555 18.624 165.555 19.6V28H162.411V20.344C162.411 19.768 162.299 19.272 162.075 18.856C161.851 18.44 161.539 18.12 161.139 17.896C160.755 17.656 160.299 17.536 159.771 17.536C159.259 17.536 158.803 17.656 158.403 17.896C158.003 18.12 157.691 18.44 157.467 18.856C157.243 19.272 157.131 19.768 157.131 20.344V28H153.987ZM174.406 28.288C173.062 28.288 171.886 27.984 170.878 27.376C169.87 26.768 169.086 25.944 168.526 24.904C167.966 23.864 167.686 22.712 167.686 21.448C167.686 20.136 167.966 18.976 168.526 17.968C169.102 16.944 169.878 16.136 170.854 15.544C171.846 14.952 172.95 14.656 174.166 14.656C175.19 14.656 176.086 14.824 176.854 15.16C177.638 15.496 178.302 15.96 178.846 16.552C179.39 17.144 179.806 17.824 180.094 18.592C180.382 19.344 180.526 20.16 180.526 21.04C180.526 21.264 180.51 21.496 180.478 21.736C180.462 21.976 180.422 22.184 180.358 22.36H170.278V19.96H178.582L177.094 21.088C177.238 20.352 177.198 19.696 176.974 19.12C176.766 18.544 176.414 18.088 175.918 17.752C175.438 17.416 174.854 17.248 174.166 17.248C173.51 17.248 172.926 17.416 172.414 17.752C171.902 18.072 171.51 18.552 171.238 19.192C170.982 19.816 170.886 20.576 170.95 21.472C170.886 22.272 170.99 22.984 171.262 23.608C171.55 24.216 171.966 24.688 172.51 25.024C173.07 25.36 173.71 25.528 174.43 25.528C175.15 25.528 175.758 25.376 176.254 25.072C176.766 24.768 177.166 24.36 177.454 23.848L179.998 25.096C179.742 25.72 179.342 26.272 178.798 26.752C178.254 27.232 177.606 27.608 176.854 27.88C176.118 28.152 175.302 28.288 174.406 28.288ZM189.197 28.288C187.901 28.288 186.733 27.992 185.693 27.4C184.669 26.792 183.861 25.976 183.269 24.952C182.677 23.912 182.381 22.744 182.381 21.448C182.381 20.152 182.677 18.992 183.269 17.968C183.861 16.944 184.669 16.136 185.693 15.544C186.733 14.952 187.901 14.656 189.197 14.656C190.125 14.656 190.989 14.824 191.789 15.16C192.589 15.48 193.277 15.928 193.853 16.504C194.445 17.064 194.869 17.736 195.125 18.52L192.365 19.72C192.125 19.064 191.717 18.536 191.141 18.136C190.581 17.736 189.933 17.536 189.197 17.536C188.509 17.536 187.893 17.704 187.349 18.04C186.821 18.376 186.405 18.84 186.101 19.432C185.797 20.024 185.645 20.704 185.645 21.472C185.645 22.24 185.797 22.92 186.101 23.512C186.405 24.104 186.821 24.568 187.349 24.904C187.893 25.24 188.509 25.408 189.197 25.408C189.949 25.408 190.605 25.208 191.165 24.808C191.725 24.408 192.125 23.872 192.365 23.2L195.125 24.448C194.869 25.184 194.453 25.848 193.877 26.44C193.301 27.016 192.613 27.472 191.813 27.808C191.013 28.128 190.141 28.288 189.197 28.288ZM203.463 28.144C201.991 28.144 200.847 27.744 200.031 26.944C199.231 26.128 198.831 24.984 198.831 23.512V17.752H196.575V14.944H196.815C197.455 14.944 197.951 14.776 198.303 14.44C198.655 14.104 198.831 13.616 198.831 12.976V11.968H201.975V14.944H204.975V17.752H201.975V23.344C201.975 23.776 202.047 24.144 202.191 24.448C202.351 24.752 202.591 24.984 202.911 25.144C203.247 25.304 203.671 25.384 204.183 25.384C204.295 25.384 204.423 25.376 204.567 25.36C204.727 25.344 204.879 25.328 205.023 25.312V28C204.799 28.032 204.543 28.064 204.255 28.096C203.967 28.128 203.703 28.144 203.463 28.144Z" fill="white"/>
</g>
<defs>
<filter id="filter0_d_0_1597" x="0" y="2" width="215" height="40" filterUnits="userSpaceOnUse" color-interpolation-filters="sRGB">
<feFlood flood-opacity="0" result="BackgroundImageFix"/>
<feColorMatrix in="SourceAlpha" type="matrix" values="0 0 0 0 0 0 0 0 0 0 0 0 0 0 0 0 0 0 127 0" result="hardAlpha"/>
<feOffset dy="4"/>
<feGaussianBlur stdDeviation="2"/>
<feComposite in2="hardAlpha" operator="out"/>
<feColorMatrix type="matrix" values="0 0 0 0 0 0 0 0 0 0 0 0 0 0 0 0 0 0 0.25 0"/>
<feBlend mode="normal" in2="BackgroundImageFix" result="effect1_dropShadow_0_1597"/>
<feBlend mode="normal" in="SourceGraphic" in2="effect1_dropShadow_0_1597" result="shape"/>
</filter>
<filter id="filter1_dd_0_1597" x="1" y="0" width="38" height="38" filterUnits="userSpaceOnUse" color-interpolation-filters="sRGB">
<feFlood flood-opacity="0" result="BackgroundImageFix"/>
<feColorMatrix in="SourceAlpha" type="matrix" values="0 0 0 0 0 0 0 0 0 0 0 0 0 0 0 0 0 0 127 0" result="hardAlpha"/>
<feOffset dy="1"/>
<feGaussianBlur stdDeviation="1"/>
<feColorMatrix type="matrix" values="0 0 0 0 0.0627451 0 0 0 0 0.0941176 0 0 0 0 0.156863 0 0 0 0.06 0"/>
<feBlend mode="normal" in2="BackgroundImageFix" result="effect1_dropShadow_0_1597"/>
<feColorMatrix in="SourceAlpha" type="matrix" values="0 0 0 0 0 0 0 0 0 0 0 0 0 0 0 0 0 0 127 0" result="hardAlpha"/>
<feOffset dy="1"/>
<feGaussianBlur stdDeviation="1.5"/>
<feColorMatrix type="matrix" values="0 0 0 0 0.0627451 0 0 0 0 0.0941176 0 0 0 0 0.156863 0 0 0 0.1 0"/>
<feBlend mode="normal" in2="effect1_dropShadow_0_1597" result="effect2_dropShadow_0_1597"/>
<feBlend mode="normal" in="SourceGraphic" in2="effect2_dropShadow_0_1597" result="shape"/>
</filter>
<linearGradient id="paint0_linear_0_1597" x1="20" y1="2" x2="20" y2="34" gradientUnits="userSpaceOnUse">
<stop stop-color="white"/>
<stop offset="1" stop-color="#D0D5DD"/>
</linearGradient>
<linearGradient id="paint1_linear_0_1597" x1="11.1989" y1="24.2137" x2="28.8347" y2="6.57791" gradientUnits="userSpaceOnUse">
<stop stop-color="#0076C1"/>
<stop offset="0.0737" stop-color="#0B82C6"/>
<stop offset="0.2766" stop-color="#269ED3"/>
<stop offset="0.4546" stop-color="#36AFDA"/>
<stop offset="0.587" stop-color="#3CB5DD"/>
</linearGradient>
<linearGradient id="paint2_linear_0_1597" x1="11.1388" y1="24.2537" x2="28.8274" y2="6.56509" gradientUnits="userSpaceOnUse">
<stop stop-color="#00A482"/>
<stop offset="1" stop-color="#79DD83"/>
</linearGradient>
<linearGradient id="paint3_linear_0_1597" x1="25.8608" y1="13.5072" x2="29.5288" y2="10.1131" gradientUnits="userSpaceOnUse">
<stop stop-color="#00A482"/>
<stop offset="1" stop-color="#79DD83"/>
</linearGradient>
</defs>
</svg>
